<svg xmlns="http://www.w3.org/2000/svg" xmlns:bx="https://boxy-svg.com" id="marker" data-name="marker" viewBox="0.5 0.5 19 31.5">
  <g id="mapbox-marker-icon">
    <g id="icon">
      <ellipse id="shadow" cx="10" cy="27" rx="9" ry="5" fill="#c4c4c4" opacity="0.3" style="isolation: isolate"/>
      <g id="mask" opacity="0.3">
        <g id="group">
          <path id="shadow-2" data-name="shadow" fill="#bfbfbf" d="M10,32c5,0,9-2.2,9-5s-4-5-9-5-9,2.2-9,5S5,32,10,32Z" fill-rule="evenodd"/>
        </g>
      </g>
      <path id="color" fill="#ee4e8b" stroke="#b43b71" stroke-width="0.5" d="M19.25,10.4a13.0663,13.0663,0,0,1-1.4607,5.2235,41.5281,41.5281,0,0,1-3.2459,5.5483c-1.1829,1.7369-2.3662,3.2784-3.2541,4.3859-.4438.5536-.8135.9984-1.0721,1.3046-.0844.1-.157.1852-.2164.2545-.06-.07-.1325-.1564-.2173-.2578-.2587-.3088-.6284-.7571-1.0723-1.3147-.8879-1.1154-2.0714-2.6664-3.2543-4.41a42.2677,42.2677,0,0,1-3.2463-5.5535A12.978,12.978,0,0,1,.75,10.4,9.4659,9.4659,0,0,1,10,.75,9.4659,9.4659,0,0,1,19.25,10.4Z"/>
      <path id="circle" fill="#fff" stroke="#b43b71" stroke-width="0.5" d="M13.55,10A3.55,3.55,0,1,1,10,6.45,3.5484,3.5484,0,0,1,13.55,10Z"/>
    </g>
    <path class="d" d="M 12.312 7.45 C 12.312 8.35 11.712 9.15 10.912 9.55 C 10.012 9.85 9.012 9.65 8.412 9.05 C 7.712 8.35 7.512 7.45 7.912 6.55 C 8.312 5.75 9.112 5.15 10.012 5.15 C 10.345 5.15 10.645 5.216 10.912 5.35 C 11.179 5.416 11.412 5.583 11.612 5.85 C 11.812 6.05 11.979 6.283 12.112 6.55 C 12.245 6.816 12.312 7.116 12.312 7.45 L 12.312 7.45 Z" style="fill: rgb(255, 255, 255); stroke: rgb(180, 59, 113); stroke-width: 0.5px;" bx:origin="-0.157 1.635"/>
    <path class="d" d="M 9.512 9.25 C 9.512 10.15 9.012 10.95 8.112 11.35 C 7.312 11.65 6.312 11.45 5.712 10.85 C 5.012 10.15 4.812 9.25 5.212 8.35 C 5.512 7.55 6.412 6.95 7.312 6.95 C 7.579 6.95 7.845 7.016 8.112 7.15 C 8.445 7.283 8.712 7.45 8.912 7.65 C 9.112 7.85 9.279 8.083 9.412 8.35 C 9.479 8.616 9.512 8.916 9.512 9.25 Z" style="fill: rgb(255, 255, 255); stroke: rgb(180, 59, 113); stroke-width: 0.5px;" bx:origin="0.439 1.239"/>
    <path class="d" d="M 10.512 11.95 C 10.512 12.85 9.912 13.75 9.112 14.05 C 8.212 14.45 7.212 14.25 6.612 13.55 C 5.912 12.95 5.712 11.95 6.112 11.05 C 6.412 10.25 7.312 9.65 8.212 9.65 C 8.479 9.65 8.779 9.716 9.112 9.85 C 9.379 9.983 9.612 10.15 9.812 10.35 C 10.012 10.55 10.179 10.783 10.312 11.05 C 10.445 11.383 10.512 11.683 10.512 11.95 L 10.512 11.95 Z" style="fill: rgb(255, 255, 255); stroke: rgb(180, 59, 113); stroke-width: 0.5px;" bx:origin="0.234 0.634"/>
    <path class="d" d="M 14.112 11.95 C 14.112 12.85 13.512 13.75 12.712 14.05 C 11.812 14.45 10.912 14.25 10.212 13.55 C 9.612 12.95 9.412 11.95 9.712 11.05 C 10.112 10.25 10.912 9.65 11.812 9.65 C 12.145 9.65 12.445 9.716 12.712 9.85 C 12.979 9.983 13.212 10.15 13.412 10.35 C 13.612 10.55 13.779 10.783 13.912 11.05 C 14.045 11.383 14.112 11.683 14.112 11.95 L 14.112 11.95 Z" style="fill: rgb(255, 255, 255); stroke: rgb(180, 59, 113); stroke-width: 0.5px;" bx:origin="-0.571 0.634"/>
    <path class="d" d="M 15.012 9.25 C 15.012 10.15 14.412 10.95 13.612 11.35 C 12.712 11.65 11.812 11.45 11.112 10.85 C 10.512 10.15 10.312 9.25 10.612 8.35 C 11.012 7.55 11.812 6.95 12.712 6.95 C 13.045 6.95 13.345 7.016 13.612 7.15 C 13.879 7.283 14.112 7.45 14.312 7.65 C 14.579 7.85 14.745 8.083 14.812 8.35 C 14.945 8.616 15.012 8.916 15.012 9.25 L 15.012 9.25 Z" style="fill: rgb(255, 255, 255); stroke: rgb(180, 59, 113); stroke-width: 0.5px;" bx:origin="-0.769 1.239"/>
    <path class="d" d="M 11.012 9.95 C 11.012 10.35 10.812 10.75 10.412 10.85 C 10.012 11.05 9.612 10.95 9.312 10.65 C 9.012 10.35 8.912 9.95 9.112 9.55 C 9.212 9.25 9.612 8.95 10.012 8.95 C 10.145 8.95 10.279 8.983 10.412 9.05 C 10.545 9.116 10.645 9.183 10.712 9.25 C 10.779 9.383 10.845 9.483 10.912 9.55 C 10.979 9.683 11.012 9.816 11.012 9.95 L 11.012 9.95 Z" style="fill: rgb(255, 255, 255); stroke: rgb(180, 59, 113); stroke-width: 0.5px;" bx:origin="-1.01 1.807"/>
  </g>
  <rect width="20" height="48" fill="none"/>
</svg>